<svg width="40" height="39" viewBox="0 0 40 39" fill="none" xmlns="http://www.w3.org/2000/svg">
<path d="M19.9196 33.0105C15.1279 33.0105 10.8921 30.6105 8.4196 27.0105C8.4771 23.2605 16.0863 21.198 19.9196 21.198C23.7529 21.198 31.3621 23.2605 31.4196 27.0105C30.1525 28.8563 28.4408 30.3689 26.4354 31.4152C24.43 32.4615 22.1924 33.0094 19.9196 33.0105ZM19.9196 6.3855C21.4446 6.3855 22.9071 6.97813 23.9855 8.03302C25.0638 9.08791 25.6696 10.5187 25.6696 12.0105C25.6696 13.5023 25.0638 14.9331 23.9855 15.988C22.9071 17.0429 21.4446 17.6355 19.9196 17.6355C18.3946 17.6355 16.9321 17.0429 15.8537 15.988C14.7754 14.9331 14.1696 13.5023 14.1696 12.0105C14.1696 10.5187 14.7754 9.08791 15.8537 8.03302C16.9321 6.97813 18.3946 6.3855 19.9196 6.3855ZM19.9196 0.760498C17.4026 0.760498 14.9102 1.24548 12.5848 2.18776C10.2594 3.13003 8.14651 4.51115 6.36672 6.25225C2.77227 9.76855 0.75293 14.5377 0.75293 19.5105C0.75293 24.4833 2.77227 29.2524 6.36672 32.7687C8.14651 34.5098 10.2594 35.891 12.5848 36.8332C14.9102 37.7755 17.4026 38.2605 19.9196 38.2605C25.0029 38.2605 29.878 36.2851 33.4725 32.7687C37.0669 29.2524 39.0863 24.4833 39.0863 19.5105C39.0863 9.14175 30.4613 0.760498 19.9196 0.760498Z" fill="#2D2C2C"/>
</svg>
