<svg width="42" height="40" viewBox="0 0 42 40" fill="none" xmlns="http://www.w3.org/2000/svg">
<path d="M40.575 19.6961L22.0717 1.20626C21.9384 1.07277 21.7802 0.966867 21.606 0.894609C21.4318 0.82235 21.245 0.785156 21.0564 0.785156C20.8678 0.785156 20.6811 0.82235 20.5069 0.894609C20.3327 0.966867 20.1744 1.07277 20.0412 1.20626L1.53789 19.6961C0.998828 20.2352 0.693359 20.9674 0.693359 21.7311C0.693359 23.3168 1.98262 24.6061 3.56836 24.6061H5.51797V37.7996C5.51797 38.5947 6.16035 39.2371 6.95547 39.2371H18.1814V29.1746H23.2127V39.2371H35.1574C35.9525 39.2371 36.5949 38.5947 36.5949 37.7996V24.6061H38.5445C39.3082 24.6061 40.0404 24.3051 40.5795 23.7615C41.698 22.6385 41.698 20.8192 40.575 19.6961V19.6961Z" fill="#2D2C2C"/>
</svg>
