<svg width="104" height="18" viewBox="0 0 104 18" fill="none" xmlns="http://www.w3.org/2000/svg">
<path d="M3.23047 11.3203V18H0.980469V0.9375H7.27344C9.14062 0.9375 10.6016 1.41406 11.6562 2.36719C12.7188 3.32031 13.25 4.58203 13.25 6.15234C13.25 7.80859 12.7305 9.08594 11.6914 9.98438C10.6602 10.875 9.17969 11.3203 7.25 11.3203H3.23047ZM3.23047 9.48047H7.27344C8.47656 9.48047 9.39844 9.19922 10.0391 8.63672C10.6797 8.06641 11 7.24609 11 6.17578C11 5.16016 10.6797 4.34766 10.0391 3.73828C9.39844 3.12891 8.51953 2.8125 7.40234 2.78906H3.23047V9.48047ZM18.5352 18H16.2852V0.9375H18.5352V18ZM28.4375 7.47656L32.5273 0.9375H35.1758L29.7852 9.39844L35.3047 18H32.6328L28.4375 11.3438L24.2188 18H21.5586L27.0898 9.39844L21.6875 0.9375H24.3242L28.4375 7.47656ZM47.5625 10.1133H40.168V16.1602H48.7578V18H37.918V0.9375H48.6406V2.78906H40.168V8.27344H47.5625V10.1133ZM53.8203 16.1602H61.9062V18H51.5586V0.9375H53.8203V16.1602ZM74.1289 13.5469H66.9805L65.375 18H63.0547L69.5703 0.9375H71.5391L78.0664 18H75.7578L74.1289 13.5469ZM67.6602 11.6953H73.4609L70.5547 3.71484L67.6602 11.6953ZM90.6289 2.78906H85.1445V18H82.9062V2.78906H77.4336V0.9375H90.6289V2.78906ZM102.805 10.1133H95.4102V16.1602H104V18H93.1602V0.9375H103.883V2.78906H95.4102V8.27344H102.805V10.1133Z" fill="black"/>
</svg>
