<svg width="47" height="43" viewBox="0 0 47 43" fill="none" xmlns="http://www.w3.org/2000/svg">
<g filter="url(#filter0_d_265_126)">
<path d="M23.9196 33.0105C19.1279 33.0105 14.8921 30.6105 12.4196 27.0105C12.4771 23.2605 20.0863 21.198 23.9196 21.198C27.7529 21.198 35.3621 23.2605 35.4196 27.0105C34.1525 28.8563 32.4408 30.3689 30.4354 31.4152C28.43 32.4615 26.1924 33.0094 23.9196 33.0105ZM23.9196 6.3855C25.4446 6.3855 26.9071 6.97813 27.9855 8.03302C29.0638 9.08791 29.6696 10.5187 29.6696 12.0105C29.6696 13.5023 29.0638 14.9331 27.9855 15.988C26.9071 17.0429 25.4446 17.6355 23.9196 17.6355C22.3946 17.6355 20.9321 17.0429 19.8537 15.988C18.7754 14.9331 18.1696 13.5023 18.1696 12.0105C18.1696 10.5187 18.7754 9.08791 19.8537 8.03302C20.9321 6.97813 22.3946 6.3855 23.9196 6.3855ZM23.9196 0.760498C21.4026 0.760498 18.9102 1.24548 16.5848 2.18776C14.2594 3.13003 12.1465 4.51115 10.3667 6.25225C6.77227 9.76855 4.75293 14.5377 4.75293 19.5105C4.75293 24.4833 6.77227 29.2524 10.3667 32.7687C12.1465 34.5098 14.2594 35.891 16.5848 36.8332C18.9102 37.7755 21.4026 38.2605 23.9196 38.2605C29.0029 38.2605 33.878 36.2851 37.4725 32.7687C41.0669 29.2524 43.0863 24.4833 43.0863 19.5105C43.0863 9.14175 34.4613 0.760498 23.9196 0.760498Z" fill="#2D2C2C"/>
</g>
<defs>
<filter id="filter0_d_265_126" x="0.75293" y="0.760498" width="46.333" height="45.5" filterUnits="userSpaceOnUse" color-interpolation-filters="sRGB">
<feFlood flood-opacity="0" result="BackgroundImageFix"/>
<feColorMatrix in="SourceAlpha" type="matrix" values="0 0 0 0 0 0 0 0 0 0 0 0 0 0 0 0 0 0 127 0" result="hardAlpha"/>
<feOffset dy="4"/>
<feGaussianBlur stdDeviation="2"/>
<feComposite in2="hardAlpha" operator="out"/>
<feColorMatrix type="matrix" values="0 0 0 0 0 0 0 0 0 0 0 0 0 0 0 0 0 0 0.25 0"/>
<feBlend mode="normal" in2="BackgroundImageFix" result="effect1_dropShadow_265_126"/>
<feBlend mode="normal" in="SourceGraphic" in2="effect1_dropShadow_265_126" result="shape"/>
</filter>
</defs>
</svg>
