<svg width="37" height="36" viewBox="0 0 37 36" fill="none" xmlns="http://www.w3.org/2000/svg">
<path d="M0.978516 34.2744C0.978516 35.0522 1.60693 35.6807 2.38477 35.6807H34.7285C35.5063 35.6807 36.1348 35.0522 36.1348 34.2744V15.8174H0.978516V34.2744ZM34.7285 3.68848H27.3457V0.875977C27.3457 0.682617 27.1875 0.524414 26.9941 0.524414H24.5332C24.3398 0.524414 24.1816 0.682617 24.1816 0.875977V3.68848H12.9316V0.875977C12.9316 0.682617 12.7734 0.524414 12.5801 0.524414H10.1191C9.92578 0.524414 9.76758 0.682617 9.76758 0.875977V3.68848H2.38477C1.60693 3.68848 0.978516 4.31689 0.978516 5.09473V12.8291H36.1348V5.09473C36.1348 4.31689 35.5063 3.68848 34.7285 3.68848Z" fill="#2D2C2C"/>
</svg>
